<?xml version="1.0" encoding="UTF-8"?>
<svg id="_图层_1" data-name="图层 1" xmlns="http://www.w3.org/2000/svg" viewBox="0 0 600 375">
  <path d="M347.59,137.37c1.41,4.51,2.61,8.63,3.98,12.69,1.76,5.22,3.71,10.37,5.48,15.59,.51,1.51,1.35,2.21,2.91,2.33,1.63,.13,3.24,.43,4.85,.69,1.5,.24,1.73,.66,.9,1.92-1.11,1.68-2.27,3.33-3.48,4.95-.49,.65-.59,1.18-.24,1.93,1.29,2.77,2.49,5.58,3.8,8.34,.33,.69,.37,1.22-.06,1.81-2.11,2.91-4.01,5.98-6.48,8.61-.54,.57-.92,1.21-1.23,1.91-5.12,11.76-11.86,22.56-19.62,32.73-1.16,1.52-2.52,2.87-4.13,3.94-1.93,1.29-3.43,1.12-5.13-.54-3.25-3.17-5.97-6.8-8.96-10.19-3.8-4.29-7.73-8.44-11.9-12.37-.23-.21-.45-.56-.82-.39-.36,.17-.24,.56-.25,.87-.11,2.51-.31,5-.62,7.5-.19,1.52-.77,2.83-1.65,4.04-1.63,2.25-3.28,4.48-4.93,6.72-1.57,2.12-2.42,2.18-3.88-.09-3.57-5.55-7.02-11.18-10.51-16.78-5.68-9.13-10.52-18.74-15.65-28.18-1.02-1.87-1.05-3.57,.3-5.3,1.57-2.02,3.07-4.1,4.57-6.18,.82-1.14,1.76-1.42,3.09-.86,2.09,.88,4.25,1.62,6.62,2.51-.32-1.68-1.03-2.9-1.6-4.15-3.08-6.75-5.82-13.64-8.34-20.63-.31-.86-.45-1.69-.01-2.53,1.67-3.15,3.77-6,6.19-8.6,.57-.62,1.05-.75,1.37,.27,2.47,7.7,5.65,15.11,8.97,22.47,2.56,5.67,5.02,11.38,7.94,16.88,.79,1.49,.85,1.5,1.87,.11,.84-1.14,1.57-2.37,2.61-3.35,.83-.78,1.4-.75,1.59,.54,.7,4.64,1.44,9.27,1.63,13.97,.07,1.77,.61,3.08,2.02,4.36,8.92,8.12,17.46,16.63,24.99,26.09,.75,.94,1.57,1.81,2.4,2.68,2.11,2.2,3.73,2.05,5.4-.48,1.89-2.88,3.51-5.91,5.06-8.98,1.89-3.75,3.84-7.48,5.24-11.45,.78-2.22,1.5-4.48,1.15-6.88-.74-5.07-3.99-8.02-9.29-8.08-5.01-.05-10.03,.23-15.05,.39-4.36,.14-8.7,.65-13.04,1.08-2.3,.23-2.79-.13-3.6-2.38-1.71-4.72-3.45-9.43-5.04-14.19-.48-1.44-1.21-2.22-2.7-2.37-.54-.05-1.07-.23-1.6-.34-2.46-.52-2.75-.89-1.11-2.88,2.01-2.44,2.17-4.73,1.36-7.76-1.83-6.85-3.13-13.83-4.62-20.76-.75-3.48-.75-6.77,1.97-9.6,1.39-1.45,2.48-3.18,3.73-4.76,.3-.38,.64-.89,1.18-.74,.58,.15,.47,.78,.53,1.25,1.67,11.45,4.11,22.74,7.54,33.8,.45,1.45,1.17,2.09,2.69,2.33,9.37,1.5,18.71,3.1,28.07,4.67,1.45,.24,1.62,0,1.13-1.46-3.55-10.67-6.98-21.36-9.54-32.32-.56-2.41-.41-4.46,1.18-6.44,1.64-2.04,3.07-4.25,4.7-6.29,1.28-1.61,2.02-1.67,3.81-.67,2.17,1.21,3.84,3.05,5.64,4.7,8.32,7.63,16.93,14.92,25.37,22.42,1.47,1.3,2.95,2.6,4.34,3.98,.8,.79,1.29,.78,1.87-.19,2.77-4.62,6.92-7.47,11.97-9.1,2.46-.79,4.95-1.21,7.57-.79,5.63,.92,8.38,7.67,7.68,12.37-1.31,8.88-3.49,17.53-6.01,26.13-1.26,4.3-2.75,8.38-5.75,11.78-.53,.6-.65,1.19,0,1.69,.7,.55,.95-.27,1.25-.61,3.21-3.78,7.28-6.57,11.08-9.67,3.3-2.69,6.62-5.35,9.93-8.02,.3-.24,.58-.51,.9-.71,.34-.21,.72-.7,1.14-.27,.37,.39,.04,.84-.2,1.18-1.25,1.79-2.52,3.56-3.79,5.33-.51,.71-1.07,1.39-.55,2.37,.56,1.05,1.5,.75,2.32,.68,10.33-.85,20.63-1.94,30.81-3.96,1.07-.21,2.16-.3,3.24-.45,3.61-.5,6.17,2.24,5.23,5.81-2.05,7.81-3.9,15.67-6.43,23.35-1.66,5.03-3.25,10.1-6.06,14.63-2.32,3.74-4.98,7.27-7.74,10.71-2.1,2.62-3.69,2.56-5.81-.04-3.09-3.78-5.21-8.19-7.71-12.34-4.02-6.68-7.94-13.43-11.8-20.21-1.81-3.17-3.43-6.45-4.43-9.99-.29-1.01-.61-1.43-1.63-.59-2.14,1.77-4.34,3.48-6.56,5.16-1.08,.82-.48,1.43,.08,2.17,3.97,5.28,8.26,10.3,12.44,15.4,5.95,7.25,12.23,14.24,17.64,21.92,2.23,3.17,4.32,6.42,6.5,9.63,1.03,1.52,.91,2.91-.21,4.35-1.37,1.77-2.66,3.59-3.92,5.43-.53,.77-.69,1.68-1.64,2.29-1.14,.74-.66,1.57-.57-.02-.16,2.26-1.49,1.73-3.79,.95-8.04-2.77-14.97-7.44-21.5-12.73-4.23-3.43-8.52-6.86-11.89-11.2-3.8-4.9-6.49-10.35-7.14-16.62-.39-3.82,1.07-7.2,2.82-10.43,.86-1.58,.89-2.74-.22-4.26-2.79-3.84-5.34-7.85-7.44-12.12-.67-1.37-.97-1.39-1.82-.15-4.69,6.87-10.18,13.07-16.14,18.84-2.62,2.54-5.49,4.82-8.22,7.25-1.36,1.21-1.34,1.29,.38,1.9,5.88,2.09,11.01,5.47,15.99,9.13,.7,.51,1.42,.99,2.55,1.77-.75-2.35-1.35-4.28-1.99-6.19-.97-2.9-1.95-5.79-2.97-8.67-.36-1-.33-1.94,.23-2.82,1.7-2.67,3.48-5.28,5.65-7.61,.83-.89,1.38-.89,1.82,.36,3.45,10,6.93,19.99,9.39,30.3,.78,3.27,.61,6.18-1.79,8.83-1.6,1.77-2.89,3.82-4.31,5.75-.8,1.09-1.6,1.1-2.56,.14-5.77-5.76-12.05-10.89-18.87-15.37-3.07-2.02-6.34-3.63-9.75-4.97-.91-.36-1.84-.69-2.75-1.06-2.59-1.05-2.94-1.97-1.42-4.31,3.06-4.73,6.6-9.01,10.96-12.69,7.91-6.69,15.85-13.38,22.41-21.5,1.15-1.43,1.49-2.51,.7-4.34-2.68-6.17-4.16-12.64-3.78-19.42,.06-1.03-.32-1.76-1.07-2.42-7.83-6.87-15.64-13.76-23.47-20.63-1.16-1.01-2.12-2.28-3.91-3.23Zm103.96,54.14c.02-2.67-1.24-3.94-3.79-3.79-1.52,.09-3.04,.31-4.54,.57-6.23,1.09-12.45,2.24-18.76,2.75-1.8,.14-1.83,.14-.89,1.76,2.16,3.73,4.32,7.45,6.54,11.14,3.56,5.93,6.78,12.07,10.83,17.7,.31,.43,.61,1.08,1.17,1.05,.64-.04,.61-.81,.8-1.29,3.62-9.33,5.87-19.06,8.41-28.7,.11-.42,.16-.86,.22-1.19Zm-56.01-3.86c1.6-4.86,2.91-9.41,3.97-14.02,1.13-4.94,2.27-9.89,2.4-14.98,.1-4.02-3.01-7.97-6.77-8.73-3.65-.73-7.01,.39-10.26,1.91-.77,.36-.71,.85-.18,1.41,1.35,1.42,2.77,2.79,4.02,4.29,1.84,2.22,3.81,4.44,3.64,7.61-.2,3.67-.75,7.27-2.85,10.43-.31,.46-.55,.94-.23,1.52,1.89,3.48,3.68,7.03,6.27,10.56Zm22.56,48.29c-7.42-8.96-14.83-17.91-22.25-26.87,2.92,12.71,12.78,19.62,22.25,26.87Zm-72.89-58.71c-2.47-.38-4.94-.74-7.4-1.13-5.91-.94-11.83-1.85-17.74-2.85-1.53-.26-1.63,.23-1.08,1.41,.11,.25,.19,.51,.27,.77,1.21,3.66,1.22,3.79,5.07,3.29,6.92-.89,13.88-1.06,20.88-1.49Zm-46.03,35.53c.44-1.47,.14-2.94,.27-4.37,.33-3.47-.72-6.12-3.62-8.32-3.09-2.34-5.81-5.16-8.69-7.78,3.48,7.16,7.71,13.81,12.04,20.47Z"/>
  <path d="M230.79,210.19c-.94-1.53-1.88-3.11-2.87-4.65-7.6-11.78-14.99-23.69-22.11-35.77-.64-1.09-.67-1.97-.03-3.02,1.58-2.56,3.33-4.99,5.26-7.29,1.11-1.33,1.57-1.21,2.52,.35,4.73,7.78,9.47,15.56,14.21,23.34,.17,.27,.35,.54,.8,.73-.31-1.26-.58-2.53-.93-3.78-.6-2.14-.26-4.11,1.04-5.91,1.66-2.3,3.29-4.62,5.04-6.85,1.57-2.01,2.92-2.35,5.32-1.41,3.86,1.5,7.7,3.08,11.55,4.61,.53,.21,1.04,.59,1.72,.46-.12-.98-.68-1.74-1.1-2.54-2.8-5.43-5.63-10.85-8.45-16.26-.25-.48-.47-1.04-.86-1.38-1.58-1.41-1.16-2.75-.11-4.25,1.56-2.24,3.15-4.45,4.86-6.57,.85-1.05,1.66-1.05,2.5,.05,1.38,1.79,2.19,3.89,3.24,5.86,5.3,9.9,10.12,20.06,15.69,29.82,.97,1.7,1.13,3.22-.29,4.77-.66,.72-1.13,1.6-1.7,2.42,.07,.02,.16,.07,.21,.04,.64-.34,.88-1.57,1.74-1.19,.77,.33,.39,1.36,.48,2.1,.54,4.72,.73,9.46,.63,14.21-.16,7.33-1.18,14.54-2.8,21.7-.72,3.17-2.56,5.61-4.39,8.11-1.09,1.49-2.14,3.03-3.29,4.47-2.04,2.56-4.71,2.44-6.39-.37-2.49-4.17-4.87-8.4-7.26-12.62-.6-1.05-1.01-1.46-1.81-.14-.73,1.21-1.66,2.3-2.5,3.43-1.4,1.89-2.03,2.09-4.33,1.52-5.82-1.45-11.65-2.86-17.48-4.3-19.83-4.89-40.01-7.91-60.1-11.44-5.42-.95-10.8-2.18-16.3-2.68-.87-.08-1.26-.44-.8-1.27,1.78-3.21,3.91-6.17,6.48-8.8,.74-.76,1.75-.51,2.65-.35,8.16,1.41,16.32,2.85,24.48,4.28,4.83,.84,9.67,1.63,14.49,2.52,1.25,.23,1.47-.09,1.31-1.29-1.47-10.64-2.86-21.29-4.32-31.93-1.76-12.75-3.26-25.53-5.87-38.15-1.1-5.34-2.28-10.67-3.82-15.91-.45-1.52-.39-2.81,.55-4.16,1.75-2.5,3.36-5.1,5.51-7.29,.83-.84,1.19-.6,1.49,.48,2.11,7.79,4.01,15.64,5.32,23.61,1.47,8.98,2.86,17.98,4.08,27,1.35,9.94,2.61,19.89,4.06,29.82,.81,5.56,1.48,11.13,2.2,16.7,.06,.48,.18,1.07-.03,1.45-.76,1.39,.05,1.63,1.15,1.82,9.57,1.63,19.04,3.74,28.46,6.09,.26,.06,.51,.22,.91-.13Zm28.93,11.01c.17-.19,.28-.27,.3-.35,.99-6.31,1.43-12.65,1.32-19.05-.07-4.36-1.86-8.82,.53-13.18-1.72,.14-3.05-.65-4.42-1.29-5.79-2.68-11.52-5.51-17.49-7.77-.45-.17-.97-.62-1.37-.28-.5,.43-.02,1.04,.16,1.5,.75,1.99,1.55,3.96,2.39,5.92,4.34,10.09,9.83,19.58,15.26,29.11,1.03,1.81,1.92,3.74,3.32,5.4Z"/>
</svg>