<svg xmlns="http://www.w3.org/2000/svg" width="640" height="720" viewBox="0 0 640 720" fill="none">
  <defs>
    <linearGradient id="bg" x1="0" y1="0" x2="1" y2="1">
      <stop offset="0%" stop-color="#fff2e8" />
      <stop offset="100%" stop-color="#f7f7f4" />
    </linearGradient>
  </defs>
  <rect width="640" height="720" rx="32" fill="url(#bg)" />
  <rect x="56" y="60" width="528" height="220" rx="24" fill="#ffffff" stroke="#e6e5e0" />
  <circle cx="148" cy="170" r="54" fill="#f54e00" fill-opacity="0.14" />
  <rect x="230" y="130" width="280" height="14" rx="7" fill="#26251e" fill-opacity="0.85" />
  <rect x="230" y="160" width="220" height="10" rx="5" fill="#807d72" fill-opacity="0.7" />
  <rect x="230" y="184" width="180" height="10" rx="5" fill="#807d72" fill-opacity="0.5" />
  <rect x="56" y="320" width="528" height="300" rx="24" fill="#ffffff" stroke="#e6e5e0" />
  <rect x="96" y="360" width="360" height="12" rx="6" fill="#26251e" fill-opacity="0.8" />
  <rect x="96" y="384" width="260" height="10" rx="5" fill="#807d72" fill-opacity="0.6" />
  <rect x="96" y="408" width="300" height="10" rx="5" fill="#807d72" fill-opacity="0.4" />
  <rect x="96" y="460" width="140" height="32" rx="16" fill="#f7f7f4" stroke="#e6e5e0" />
  <rect x="250" y="460" width="160" height="32" rx="16" fill="#f7f7f4" stroke="#e6e5e0" />
  <rect x="430" y="460" width="120" height="32" rx="16" fill="#f7f7f4" stroke="#e6e5e0" />
</svg>
