<svg xmlns="http://www.w3.org/2000/svg" width="800" height="520" viewBox="0 0 800 520" fill="none">
  <defs>
    <linearGradient id="grad" x1="0" y1="0" x2="1" y2="1">
      <stop offset="0%" stop-color="#f5f1ff" />
      <stop offset="100%" stop-color="#f7f7f4" />
    </linearGradient>
  </defs>
  <rect width="800" height="520" rx="28" fill="url(#grad)" />
  <rect x="56" y="56" width="688" height="120" rx="20" fill="#ffffff" stroke="#e6e5e0" />
  <rect x="96" y="96" width="260" height="12" rx="6" fill="#26251e" fill-opacity="0.85" />
  <rect x="96" y="122" width="200" height="10" rx="5" fill="#807d72" fill-opacity="0.6" />
  <rect x="56" y="210" width="220" height="250" rx="20" fill="#ffffff" stroke="#e6e5e0" />
  <rect x="300" y="210" width="220" height="250" rx="20" fill="#ffffff" stroke="#e6e5e0" />
  <rect x="544" y="210" width="200" height="250" rx="20" fill="#ffffff" stroke="#e6e5e0" />
  <rect x="90" y="256" width="140" height="10" rx="5" fill="#26251e" fill-opacity="0.8" />
  <rect x="330" y="256" width="140" height="10" rx="5" fill="#26251e" fill-opacity="0.8" />
  <rect x="570" y="256" width="120" height="10" rx="5" fill="#26251e" fill-opacity="0.8" />
  <rect x="90" y="282" width="100" height="8" rx="4" fill="#807d72" fill-opacity="0.5" />
  <rect x="330" y="282" width="100" height="8" rx="4" fill="#807d72" fill-opacity="0.5" />
  <rect x="570" y="282" width="90" height="8" rx="4" fill="#807d72" fill-opacity="0.5" />
</svg>
